PathFileType	4	(X/Y/Z)	C:\Users\86182\Documents\cortex\Trimmed_M3_L2.trc
DataRate	CameraRate	NumFrames	NumMarkers	Units	OrigDataRate	OrigDataStartFrame	OrigNumFrames
100.00	100.00	       154	2	mm	100.00	721	       901
Frame#	Time	gripper			box			
		X1	Y1	Z1	X2	Y2	Z2	

721	7.200	273.45813	149.79399	292.87366	274.96527	147.73557	157.11711	
722	7.210	273.44565	149.78372	292.87955	275.05844	147.73370	157.09554	
723	7.220	273.44769	149.78908	292.87613	274.97693	147.72276	157.10811	
724	7.230	273.43332	149.78206	292.88428	274.95862	147.69139	157.09566	
725	7.240	273.41724	149.77271	292.88806	275.04282	147.70779	157.08438	
726	7.250	273.39185	149.76532	292.90100	274.96219	147.71172	157.11052	
727	7.260	273.43420	149.77971	292.88428	274.95331	147.72057	157.11682	
728	7.270	273.45807	149.78540	292.87476	275.06314	147.69621	157.07312	
729	7.280	273.42908	149.79375	292.88440	274.96677	147.69563	157.09525	
730	7.290	273.40689	149.78336	292.89386	274.97415	147.68408	157.09308	
731	7.300	273.43936	149.77423	292.88306	275.02100	147.67950	157.07574	
732	7.310	273.44202	149.77583	292.88187	275.02560	147.67334	157.06947	
733	7.320	273.42621	149.77493	292.88782	275.12982	147.70473	157.05298	
734	7.330	273.45004	149.78062	292.87833	275.08151	147.69917	157.07227	
735	7.340	273.45270	149.78221	292.87714	275.15845	147.68327	157.04192	
736	7.350	273.46866	149.79173	292.87006	275.12299	147.68333	157.04610	
737	7.360	273.46866	149.79173	292.87006	275.08286	147.69456	157.06633	
738	7.370	273.46603	149.79016	292.87125	275.09915	147.69025	157.04982	
739	7.380	273.44855	149.78673	292.87613	275.09027	147.68413	157.05273	
740	7.390	273.46866	149.79173	292.87006	275.08679	147.70518	157.07205	
741	7.400	273.42374	149.76723	292.88904	275.08945	147.68076	157.05707	
742	7.410	273.44473	149.77745	292.88068	275.06696	147.69641	157.07027	
743	7.420	273.41690	149.77016	292.88919	275.00546	147.68684	157.07326	
744	7.430	273.43402	149.77104	292.88541	274.99182	147.69485	157.09380	
745	7.440	273.38498	149.76071	292.90347	275.00116	147.68851	157.08440	
746	7.450	273.39105	149.79613	292.89420	274.98169	147.69911	157.09103	
747	7.460	273.42984	149.78305	292.88217	275.00751	147.69553	157.09221	
748	7.470	273.44235	149.78589	292.87848	275.01080	147.69769	157.08749	
749	7.480	273.44662	149.78999	292.87842	274.98883	147.68532	157.08154	
750	7.490	273.42441	149.77960	292.88788	275.02274	147.69316	157.07930	
751	7.500	273.42059	149.76303	292.89136	275.07028	147.69336	157.07138	
752	7.510	273.43137	149.76945	292.88660	275.09283	147.65991	157.05293	
753	7.520	273.44202	149.77583	292.88187	275.07156	147.68852	157.07083	
754	7.530	273.46182	149.79466	292.87024	275.11014	147.68288	157.06053	
755	7.540	273.42603	149.76627	292.88898	275.12961	147.67456	157.05135	
756	7.550	273.40714	149.75499	292.89734	275.19022	147.69055	157.03726	
757	7.560	273.42059	149.76303	292.89136	275.09940	147.68013	157.06096	
758	7.570	273.45004	149.78062	292.87833	275.14169	147.68124	157.05066	
759	7.580	273.41522	149.75983	292.89374	275.06277	147.68132	157.05981	
760	7.590	273.44202	149.77583	292.88187	275.08917	147.65976	157.04068	
761	7.600	273.45807	149.78540	292.87476	275.10849	147.65997	157.04204	
762	7.610	273.43674	149.77266	292.88422	275.03125	147.67123	157.06792	
763	7.620	273.43402	149.77104	292.88541	275.05902	147.66351	157.05734	
764	7.630	273.41623	149.76616	292.89258	275.07568	147.65939	157.05537	
765	7.640	273.40982	149.75659	292.89615	275.07806	147.66086	157.04712	
766	7.650	273.45004	149.78062	292.87833	275.08057	147.65639	157.05042	
767	7.660	273.40674	149.77473	292.89502	275.07541	147.66772	157.05626	
768	7.670	273.43402	149.77104	292.88541	275.07465	147.66612	157.04857	
769	7.680	273.46335	149.78857	292.87241	275.11276	147.67096	157.04182	
770	7.690	273.42331	149.76465	292.89017	275.10275	147.67657	157.04747	
771	7.700	273.45004	149.78062	292.87833	275.10519	147.66118	157.02800	
772	7.710	273.43674	149.77266	292.88422	275.10031	147.65102	157.04274	
773	7.720	273.45538	149.78381	292.87595	275.09552	147.66595	157.04933	
774	7.730	273.45538	149.78381	292.87595	275.14612	147.64929	157.01295	
775	7.740	273.42267	149.77568	292.88904	275.16281	147.67984	157.04272	
776	7.750	273.44473	149.77745	292.88068	275.10605	147.65253	157.03709	
777	7.760	273.42865	149.76784	292.88779	275.12137	147.66489	157.04266	
778	7.770	273.37616	149.76573	292.90475	275.17389	147.68961	157.04961	
779	7.780	273.42429	149.77097	292.88901	275.07898	147.65826	157.05435	
780	7.790	273.39975	149.77623	292.89740	275.11047	147.68321	157.05492	
781	7.800	273.41843	149.78738	292.88913	275.15527	147.67386	157.02422	
782	7.810	273.46252	149.79092	292.87244	275.08167	147.66869	157.03587	
783	7.820	273.42197	149.78716	292.88126	275.09775	147.66136	157.04291	
784	7.830	273.44055	149.79776	292.87970	275.09753	147.65868	157.03609	
785	7.840	273.44495	149.79469	292.87845	275.07703	147.66759	157.04033	
786	7.850	273.41061	149.79123	292.89151	275.13376	147.68294	157.04413	
787	7.860	273.38211	149.79950	292.90100	275.16718	147.68913	157.04459	
788	7.870	273.37759	149.77634	292.90601	275.10190	147.70270	157.06438	
789	7.880	273.44742	149.77904	292.87949	275.13925	147.70859	157.06772	
790	7.890	273.42865	149.76784	292.88779	275.11188	147.67261	157.05566	
791	7.900	273.44202	149.77583	292.88187	275.05258	147.67979	157.06857	
792	7.910	273.43674	149.77266	292.88422	275.09290	147.68236	157.06297	
793	7.920	273.43320	149.77342	292.88544	275.10284	147.66377	157.05170	
794	7.930	273.43137	149.76945	292.88660	275.07315	147.68913	157.06906	
795	7.940	273.44742	149.77904	292.87949	275.09424	147.66902	157.05681	
796	7.950	273.46069	149.78697	292.87360	275.09421	147.65532	157.04216	
797	7.960	273.44321	149.78354	292.87848	275.13269	147.67685	157.04160	
798	7.970	273.45538	149.78381	292.87595	275.12277	147.67989	157.05013	
799	7.980	273.46335	149.78857	292.87241	275.10931	147.69942	157.06805	
800	7.990	273.46866	149.79173	292.87006	275.05115	147.72653	157.09322	
801	8.000	273.43674	149.77266	292.88422	275.07669	147.69228	157.07317	
802	8.010	273.46335	149.78857	292.87241	275.05106	147.71513	157.08566	
803	8.020	273.45459	149.79475	292.87488	275.05161	147.70465	157.08180	
804	8.030	273.44662	149.78999	292.87842	274.92334	147.71988	157.11819	
805	8.040	273.45004	149.78062	292.87833	274.90323	147.71074	157.12730	
806	8.050	273.46335	149.78857	292.87241	274.90717	147.70683	157.11401	
807	8.060	273.45538	149.78381	292.87595	275.01822	147.70444	157.08994	
808	8.070	273.44202	149.77583	292.88187	274.96082	147.71095	157.10226	
809	8.080	273.46866	149.79173	292.87006	274.98767	147.71043	157.09430	
810	8.090	273.43402	149.77104	292.88541	275.07202	147.69490	157.07346	
811	8.100	273.45807	149.78540	292.87476	275.06451	147.65956	157.05798	
812	8.110	273.43674	149.77266	292.88422	275.13699	147.69966	157.06387	
813	8.120	273.46866	149.79173	292.87006	275.11917	147.71404	157.07552	
814	8.130	273.43936	149.77423	292.88306	275.07642	147.68794	157.06812	
815	8.140	273.45270	149.78221	292.87714	275.15381	147.69049	157.04724	
816	8.150	273.45270	149.78221	292.87714	275.12335	147.70164	157.07111	
817	8.160	273.46069	149.78697	292.87360	275.07352	147.69513	157.06210	
818	8.170	273.45270	149.78221	292.87714	275.15460	147.67744	157.02069	
819	8.180	273.46866	149.79173	292.87006	275.03571	147.66634	157.07034	
820	8.190	273.44894	149.78929	292.87500	274.98428	147.70302	157.09486	
821	8.200	273.46866	149.79173	292.87006	275.09961	147.71928	157.06778	
822	8.210	273.43402	149.77104	292.88541	275.05881	147.70058	157.06618	
823	8.220	273.46866	149.79173	292.87006	274.99289	147.74561	157.12761	
824	8.230	273.39883	149.76404	292.89529	275.01752	147.70506	157.08972	
825	8.240	273.45004	149.78062	292.87833	275.06085	147.71237	157.08199	
826	8.250	273.42865	149.76784	292.88779	275.02887	147.68512	157.07903	
827	8.260	273.44202	149.77583	292.88187	274.95352	147.70927	157.10919	
828	8.270	273.43674	149.77266	292.88422	275.08331	147.69525	157.06024	
829	8.280	273.43674	149.77266	292.88422	275.12460	147.67409	157.04019	
830	8.290	273.46603	149.79016	292.87125	275.07437	147.67697	157.05167	
831	8.300	273.46866	149.79173	292.87006	275.15524	147.68437	157.04288	
832	8.310	273.46866	149.79173	292.87006	275.15866	147.66637	157.02020	
833	8.320	273.46603	149.79016	292.87125	275.17880	147.69559	157.03441	
834	8.330	273.42865	149.76784	292.88779	275.13797	147.67932	157.05035	
835	8.340	273.46866	149.79173	292.87006	275.11890	147.67001	157.04364	
836	8.350	273.44202	149.77583	292.88187	275.13522	147.68347	157.05264	
837	8.360	273.47089	149.79210	292.87372	275.16989	147.70001	157.05611	
838	8.370	273.42059	149.76303	292.89136	275.10767	147.66937	157.04210	
839	8.380	273.45807	149.78540	292.87476	275.12610	147.67775	157.05022	
840	8.390	273.42331	149.76465	292.89017	275.11188	147.67334	157.04478	
841	8.400	273.45807	149.78540	292.87476	275.07925	147.68379	157.06572	
842	8.410	273.45538	149.78381	292.87595	275.09903	147.70845	157.06505	
843	8.420	273.43518	149.77875	292.88202	275.13245	147.68938	157.04294	
844	8.430	273.45538	149.78381	292.87595	275.05576	147.66307	157.06010	
845	8.440	273.44473	149.77745	292.88068	275.08969	147.70131	157.06931	
846	8.450	273.46866	149.79173	292.87006	275.14243	147.68880	157.04681	
847	8.460	273.46866	149.79173	292.87006	275.13138	147.68326	157.04041	
848	8.470	273.45856	149.78989	292.87494	275.17926	147.70674	157.04210	
849	8.480	273.46603	149.79016	292.87125	275.11908	147.66890	157.02470	
850	8.490	273.45270	149.78221	292.87714	275.10059	147.67273	157.04327	
851	8.500	273.45270	149.78221	292.87714	275.11838	147.68076	157.03705	
852	8.510	273.41147	149.76692	292.89157	275.16019	147.66887	157.01134	
853	8.520	273.45386	149.78990	292.87378	275.10693	147.67293	157.05373	
854	8.530	273.43402	149.77104	292.88541	275.10828	147.68146	157.05333	
855	8.540	273.43936	149.77423	292.88306	275.08078	147.68779	157.05013	
856	8.550	273.45004	149.78062	292.87833	275.11905	147.67548	157.03743	
857	8.560	273.44473	149.77745	292.88068	275.12839	147.68689	157.04341	
858	8.570	273.44321	149.78354	292.87848	275.18213	147.66409	157.01657	
859	8.580	273.44742	149.77904	292.87949	275.11169	147.66748	157.03642	
860	8.590	273.46069	149.78697	292.87360	275.11798	147.68463	157.04305	
861	8.600	273.44473	149.77745	292.88068	275.07004	147.67366	157.04834	
862	8.610	273.45004	149.78062	292.87833	275.11826	147.66805	157.02623	
863	8.620	273.43936	149.77423	292.88306	275.08542	147.67236	157.05417	
864	8.630	273.44742	149.77904	292.87949	275.09860	147.67081	157.04178	
865	8.640	273.45004	149.78062	292.87833	275.07495	147.67334	157.05029	
866	8.650	273.45270	149.78221	292.87714	275.13916	147.68326	157.03500	
867	8.660	273.46069	149.78697	292.87360	275.14771	147.67828	157.02451	
868	8.670	273.43137	149.76945	292.88660	275.14066	147.67133	157.02711	
869	8.680	273.46866	149.79173	292.87006	275.08167	147.66869	157.03587	
870	8.690	273.46069	149.78697	292.87360	275.07013	147.68782	157.05746	
871	8.700	273.41794	149.76144	292.89255	275.15918	147.68243	157.03722	
872	8.710	273.46866	149.79173	292.87006	275.09833	147.66238	157.04636	
873	8.720	273.45270	149.78221	292.87714	275.07291	147.68089	157.04828	
874	8.730	273.41794	149.76144	292.89255	275.14722	147.68752	157.03479	
